<?xml version="1.0" encoding="utf-8"?>
<!-- Generator: Adobe Illustrator 28.1.0, SVG Export Plug-In . SVG Version: 6.00 Build 0)  -->
<svg version="1.1" id="Layer_1" xmlns="http://www.w3.org/2000/svg" xmlns:xlink="http://www.w3.org/1999/xlink" x="0px" y="0px"
	 viewBox="0 0 387.8 186.2" style="enable-background:new 0 0 387.8 186.2;" xml:space="preserve">
<style type="text/css">
	.st0{fill:#FFFFFF;stroke:#231F20;stroke-width:0.75;stroke-miterlimit:10;}
	.st1{fill:#010101;}
	.st2{fill:none;stroke:#231F20;stroke-width:0.75;stroke-linejoin:round;}
	.st3{fill:none;stroke:#231F20;stroke-width:0.75;stroke-linejoin:round;stroke-dasharray:0.8331,0.8331;}
	.st4{fill:#231F20;}
	.st5{fill:none;stroke:#231F20;stroke-width:0.75;stroke-miterlimit:10;}
	.st6{fill:#FFFFFF;stroke:#231F20;stroke-width:0.75;stroke-linecap:round;stroke-miterlimit:10;}
	.st7{fill:none;stroke:#231F20;stroke-width:0.75;stroke-linecap:round;stroke-miterlimit:10;}
	.st8{fill:none;stroke:#EC2227;stroke-width:0.75;stroke-linejoin:round;stroke-miterlimit:10;}
	.st9{fill:#FFFFFF;stroke:#EC2227;stroke-width:0.5;stroke-linecap:round;stroke-miterlimit:10;}
	.st10{fill:none;stroke:#EC2227;stroke-width:0.5;stroke-linecap:round;stroke-miterlimit:10;}
	.st11{fill:#EC2227;stroke:#EC2227;stroke-width:0.5;stroke-miterlimit:10;}
	.st12{fill:#FFFFFF;stroke:#EC2227;stroke-width:0.5;stroke-miterlimit:10;}
	.st13{fill:none;stroke:#231F20;stroke-width:0.75;stroke-linejoin:round;stroke-miterlimit:10;}
	.st14{fill:#231F20;stroke:#231F20;stroke-miterlimit:10;}
	.st15{fill:none;stroke:#804099;stroke-width:0.75;stroke-miterlimit:10;}
	.st16{fill:none;stroke:#EC2227;stroke-width:0.75;stroke-miterlimit:10;}
	.st17{fill:#231F20;stroke:#231F20;stroke-width:0.5;stroke-linecap:round;stroke-miterlimit:10;}
	.st18{fill:none;stroke:#D2D3D4;stroke-width:0.75;stroke-linejoin:round;stroke-miterlimit:10;}
	.st19{fill:#EC2227;stroke:#D2D3D4;stroke-width:0.5;stroke-miterlimit:10;}
	.st20{fill:#FFFFFF;stroke:#D2D3D4;stroke-width:0.5;stroke-miterlimit:10;}
	.st21{fill:#FFFFFF;stroke:#804099;stroke-width:0.5;stroke-miterlimit:10;}
	.st22{fill:#FFFFFF;stroke:#D2D3D4;stroke-width:0.5;stroke-linecap:round;stroke-miterlimit:10;}
	.st23{fill:none;stroke:#D2D3D4;stroke-width:0.5;stroke-linecap:round;stroke-miterlimit:10;}
	.st24{fill:#EC2227;stroke:#EC2227;stroke-width:0.5;stroke-linecap:round;stroke-miterlimit:10;}
	.st25{fill:#D2D3D4;}
	.st26{fill:#804099;}
	.st27{fill:#BDBEC0;}
	.st28{fill:#F2E9EA;stroke:#231F20;stroke-width:0.75;stroke-miterlimit:10;}
	.st29{fill:#E6E7E7;stroke:#231F20;stroke-width:0.75;stroke-miterlimit:10;}
	.st30{fill:#EC2227;}
	.st31{fill:#C2BFDB;stroke:#231F20;stroke-width:0.75;stroke-miterlimit:10;}
	.st32{opacity:0.8;fill:#C2BFDB;stroke:#231F20;stroke-width:0.75;stroke-miterlimit:10;}
	.st33{fill:#FCB858;stroke:#231F20;stroke-width:0.75;stroke-miterlimit:10;}
	.st34{opacity:0.8;fill:#FCB858;stroke:#231F20;stroke-width:0.75;stroke-miterlimit:10;}
	.st35{opacity:0.15;}
	.st36{fill:#ED82A4;stroke:#231F20;stroke-width:0.35;stroke-miterlimit:10;}
	.st37{fill:#89C055;stroke:#231F20;stroke-width:0.35;stroke-miterlimit:10;}
	.st38{fill:#F0923E;stroke:#231F20;stroke-width:0.35;stroke-miterlimit:10;}
	.st39{fill:none;stroke:#231F20;stroke-width:0.2;stroke-miterlimit:10;}
	.st40{fill:none;stroke:#804099;stroke-width:0.5;stroke-linecap:round;stroke-miterlimit:10;}
	.st41{fill:none;stroke:#231F20;stroke-width:0.75;stroke-miterlimit:10;stroke-dasharray:4.9584,2.975;}
	.st42{fill:#F7B658;stroke:#231F1D;stroke-width:0.75;stroke-miterlimit:10;}
	.st43{opacity:0.8;fill:#F7B658;stroke:#231F1D;stroke-width:0.75;stroke-miterlimit:10;}
	.st44{fill:none;stroke:#231F1D;stroke-width:0.75;stroke-miterlimit:10;}
	.st45{fill:#C1BFDB;stroke:#231F20;stroke-width:0.75;stroke-miterlimit:10;}
	.st46{opacity:0.8;fill:#C1BFDB;stroke:#231F20;stroke-width:0.75;stroke-miterlimit:10;}
	.st47{fill:none;}
	.st48{font-family:'Times-Roman';}
	.st49{font-size:8px;}
</style>
<path class="st0" d="M0,11.3v-7c0-1.4,1.1-2.5,2.5-2.5l21.5,0c1.4,0,2.5,1.1,2.5,2.5v7c0,1.4-1.1,2.5-2.5,2.5l-21.5,0
	C1.1,13.8,0,12.7,0,11.3z"/>
<path class="st0" d="M365.5,70H254.1c-0.8,0-1.4-0.6-1.4-1.4V6.2c0-0.8,0.6-1.4,1.4-1.4l111.4,0c0.8,0,1.4,0.6,1.4,1.4v62.4
	C366.9,69.3,366.3,70,365.5,70z"/>
<g>
	<g>
		<path id="g1-69_00000040559295579686140700000007626591049645067669_" class="st1" d="M357.5,10.4c-1.5,0.8-1.6,1.8-1.6,2
			c0,0.7,0.8,1,1.5,1c1.5,0,2.6-1.2,2.6-1.4c0-0.1-0.1-0.1-0.1-0.1s-0.3,0-0.6,0.3c-0.1,0.2-0.6,0.6-1.3,0.6c-0.5,0-1.4-0.2-1.4-0.8
			c0-0.3,0.2-0.7,0.5-1c0.5-0.5,1.3-0.5,1.3-0.5c0.2,0,0.3,0,0.5-0.1c0.1-0.1,0.3-0.2,0.3-0.3c0-0.1-0.1-0.1-0.2-0.1
			c-0.5,0-1.5-0.1-1.5-0.9c0-0.1,0-0.5,0.4-0.7c0.2-0.1,0.5-0.2,0.9-0.2c0.2,0,0.4,0,0.6,0.1c0.1,0,0.3,0.1,0.3,0.3
			c0,0.1,0,0.2-0.1,0.2c0,0,0,0.1,0,0.1c0,0.1,0,0.1,0.1,0.1c0.2,0,0.7-0.3,0.7-0.8c0-0.4-0.5-0.6-1-0.6c-1.3,0-2.6,0.9-2.6,1.8
			C356.7,10.2,357.3,10.4,357.5,10.4z"/>
	</g>
	<g>
		<path id="g4-110_00000005226763090987124050000005530581466326244031_" class="st1" d="M361.6,13.9c0,0.2-0.1,0.4-0.1,0.5
			c0,0.1,0.1,0.2,0.2,0.2c0.1,0,0.2-0.1,0.3-0.2c0,0,0.1-0.3,0.1-0.5c0.2-0.9,0.2-0.9,0.2-0.9c0.1-0.2,0.5-1.1,1.3-1.1
			c0.3,0,0.4,0.2,0.4,0.5c0,0.4-0.3,1-0.4,1.4c0,0.1-0.1,0.2-0.1,0.3c0,0.3,0.3,0.6,0.7,0.6c0.7,0,1-0.8,1-1c0-0.1-0.1-0.1-0.1-0.1
			c-0.1,0-0.1,0-0.1,0.1c-0.1,0.4-0.4,0.7-0.7,0.7c-0.1,0-0.2-0.1-0.2-0.2c0-0.1,0-0.2,0.1-0.3c0.1-0.3,0.4-1,0.4-1.3
			c0-0.5-0.3-0.8-0.9-0.8c-0.6,0-1,0.4-1.2,0.6c0-0.5-0.5-0.6-0.8-0.6c-0.6,0-0.8,1-0.8,1c0,0.1,0.1,0.1,0.1,0.1
			c0.1,0,0.1,0,0.1-0.1c0.1-0.4,0.2-0.7,0.5-0.7c0.2,0,0.3,0.2,0.3,0.3c0,0.1-0.1,0.3-0.1,0.5c0,0.2-0.1,0.4-0.1,0.6L361.6,13.9z"/>
	</g>
</g>
<g>
	<g>
		<line class="st2" x1="318.9" y1="152.8" x2="318.9" y2="152.3"/>
		<line class="st3" x1="318.9" y1="151.5" x2="318.9" y2="150.2"/>
		<line class="st2" x1="318.9" y1="149.8" x2="318.9" y2="149.3"/>
		<g>
			<polygon class="st4" points="321.5,152.1 318.9,156.6 316.3,152.1 			"/>
		</g>
	</g>
</g>
<g>
	<g>
		<line class="st2" x1="193.2" y1="81.3" x2="189.6" y2="81.3"/>
		<g>
			<polygon class="st4" points="192.5,78.7 197,81.3 192.5,83.9 			"/>
		</g>
	</g>
</g>
<g>
	<g>
		<line class="st2" x1="193.2" y1="45.6" x2="60.5" y2="45.6"/>
		<g>
			<polygon class="st4" points="192.5,43 197,45.6 192.5,48.3 			"/>
		</g>
	</g>
</g>
<g>
	<g>
		<line class="st2" x1="374.3" y1="160.6" x2="374.3" y2="181.4"/>
		<g>
			<polygon class="st4" points="371.7,161.4 374.3,156.8 376.9,161.4 			"/>
		</g>
	</g>
</g>
<g>
	<g>
		<line class="st5" x1="364.6" y1="152.2" x2="384" y2="152.2"/>
		<g>
			<polygon class="st4" points="383.3,154.8 387.8,152.2 383.3,149.5 			"/>
		</g>
	</g>
</g>
<g>
	<circle class="st6" cx="374.3" cy="152.2" r="4.7"/>
	<path class="st7" d="M374.3,155.5v-6.7V155.5z"/>
	<path class="st7" d="M377.7,152.2H371H377.7z"/>
</g>
<line class="st8" x1="257.7" y1="143.9" x2="333.4" y2="143.9"/>
<g>
	<circle class="st9" cx="301.3" cy="143.9" r="2.1"/>
	<path class="st10" d="M301.3,145.4v-3.1V145.4z"/>
	<path class="st10" d="M302.8,143.9h-3.1H302.8z"/>
</g>
<g>
	<circle class="st11" cx="336.5" cy="143.9" r="0.2"/>
	<circle class="st11" cx="337.8" cy="143.9" r="0.2"/>
	<circle class="st11" cx="339.1" cy="143.9" r="0.2"/>
</g>
<circle class="st12" cx="290.9" cy="143.9" r="4.7"/>
<line class="st13" x1="189.6" y1="81.3" x2="189.6" y2="181.2"/>
<line class="st5" x1="189.6" y1="181.3" x2="374.3" y2="181.5"/>
<g>
	<circle class="st14" cx="239.3" cy="13.5" r="0.4"/>
	<circle class="st14" cx="244.1" cy="11.1" r="0.4"/>
	<circle class="st14" cx="248.9" cy="8.8" r="0.4"/>
</g>
<path class="st15" d="M228.4,167.7"/>
<path class="st15" d="M366.2,161.1"/>
<path class="st16" d="M284.4,141.7"/>
<circle class="st17" cx="363.8" cy="152.2" r="1.4"/>
<line class="st5" x1="360.4" y1="161.3" x2="363.8" y2="152.1"/>
<circle class="st12" cx="318.9" cy="143.9" r="4.7"/>
<g>
	<circle class="st9" cx="329" cy="143.9" r="2.1"/>
	<path class="st10" d="M329,145.4v-3.1V145.4z"/>
	<path class="st10" d="M330.6,143.9h-3.1H330.6z"/>
</g>
<circle class="st12" cx="346.8" cy="143.9" r="4.7"/>
<line class="st8" x1="351.5" y1="143.9" x2="360" y2="143.9"/>
<line class="st18" x1="257.7" y1="161.3" x2="333.2" y2="161.3"/>
<g>
	<circle class="st19" cx="336.3" cy="161.3" r="0.2"/>
	<circle class="st19" cx="337.6" cy="161.3" r="0.2"/>
	<circle class="st19" cx="338.9" cy="161.3" r="0.2"/>
</g>
<circle class="st20" cx="290.7" cy="161.3" r="4.7"/>
<circle class="st20" cx="346.7" cy="161.3" r="4.7"/>
<circle class="st21" cx="318.9" cy="161.3" r="4.7"/>
<g>
	<circle class="st22" cx="301.3" cy="161.3" r="2.1"/>
	<path class="st23" d="M301.3,162.8v-3.1V162.8z"/>
	<path class="st23" d="M302.8,161.3h-3.1H302.8z"/>
</g>
<g>
	<circle class="st22" cx="329" cy="161.3" r="2.1"/>
	<path class="st23" d="M329,162.8v-3.1V162.8z"/>
	<path class="st23" d="M330.6,161.3h-3.1H330.6z"/>
</g>
<g>
	<circle class="st24" cx="360.7" cy="143.9" r="1.4"/>
	<circle class="st17" cx="360.4" cy="161.3" r="1.4"/>
</g>
<g>
	<path id="g1-119_00000116921915342306755770000013316811197937133706_" class="st25" d="M289.7,160.5c0.1-0.1,0.1-0.2,0.1-0.3
		c0-0.4-0.4-0.7-0.7-0.7c-0.8,0-1.1,1-1.1,1.2c0,0,0,0.1,0.1,0.1s0.1,0,0.1-0.1c0.2-0.7,0.6-0.9,0.8-0.9c0.1,0,0.2,0.1,0.2,0.3
		c0,0.2-0.1,0.4-0.2,0.6c-0.3,0.7-0.3,1-0.3,1.2c0,0.7,0.6,1,1.3,1c0.1,0,0.5,0,0.9-0.5l0.1,0.1c0.1,0.1,0.3,0.4,1.1,0.4
		c1.4,0,1.7-2.5,1.7-2.8c0-0.5-0.3-0.6-0.4-0.6c-0.2,0-0.4,0.2-0.4,0.4c0,0.1,0.1,0.2,0.1,0.2c0.2,0.1,0.3,0.3,0.3,0.6
		c0,0.2-0.4,1.9-1.3,1.9c-0.7,0-0.7-0.5-0.7-0.7c0-0.2,0.1-0.5,0.1-0.7l0.2-0.8l0.1-0.4c0-0.1,0.1-0.2,0.1-0.3
		c0-0.1-0.1-0.2-0.3-0.2c-0.3,0-0.3,0.2-0.4,0.5c-0.1,0.2-0.3,1.3-0.4,1.4c0,0.1,0,0.2,0,0.4c0,0.1,0,0.1,0,0.1
		c-0.2,0.5-0.4,0.6-0.8,0.6c-0.5,0-0.7-0.3-0.7-0.7c0-0.3,0.1-0.7,0.3-1.2L289.7,160.5z"/>
</g>
<g>
	<path id="g1-119_00000128472739293223311520000005263988538406257845_" class="st26" d="M317.8,160.5c0.1-0.1,0.1-0.2,0.1-0.3
		c0-0.4-0.4-0.7-0.7-0.7c-0.8,0-1.1,1-1.1,1.2c0,0,0,0.1,0.1,0.1c0.1,0,0.1,0,0.1-0.1c0.2-0.7,0.6-0.9,0.8-0.9
		c0.1,0,0.2,0.1,0.2,0.3c0,0.2-0.1,0.4-0.2,0.6c-0.3,0.7-0.3,1-0.3,1.2c0,0.7,0.6,1,1.3,1c0.1,0,0.5,0,0.9-0.5l0.1,0.1
		c0.1,0.1,0.3,0.4,1.1,0.4c1.4,0,1.7-2.5,1.7-2.8c0-0.5-0.3-0.6-0.4-0.6c-0.2,0-0.4,0.2-0.4,0.4c0,0.1,0.1,0.2,0.1,0.2
		c0.2,0.1,0.3,0.3,0.3,0.6c0,0.2-0.4,1.9-1.3,1.9c-0.7,0-0.7-0.5-0.7-0.7c0-0.2,0.1-0.5,0.1-0.7l0.2-0.8l0.1-0.4
		c0-0.1,0.1-0.2,0.1-0.3c0-0.1-0.1-0.2-0.3-0.2c-0.3,0-0.3,0.2-0.4,0.5c-0.1,0.2-0.3,1.3-0.4,1.4c0,0.1,0,0.2,0,0.4
		c0,0.1,0,0.1,0,0.1c-0.2,0.5-0.4,0.6-0.8,0.6c-0.5,0-0.7-0.3-0.7-0.7c0-0.3,0.1-0.7,0.3-1.2L317.8,160.5z"/>
</g>
<g>
	<path id="g1-119_00000138569246445639564790000002818452455117313152_" class="st4" d="M317.8,143.1c0.1-0.1,0.1-0.2,0.1-0.3
		c0-0.4-0.4-0.7-0.7-0.7c-0.8,0-1.1,1-1.1,1.2c0,0,0,0.1,0.1,0.1c0.1,0,0.1,0,0.1-0.1c0.2-0.7,0.6-0.9,0.8-0.9
		c0.1,0,0.2,0.1,0.2,0.3c0,0.2-0.1,0.4-0.2,0.6c-0.3,0.7-0.3,1-0.3,1.2c0,0.7,0.6,1,1.3,1c0.1,0,0.5,0,0.9-0.5l0.1,0.1
		c0.1,0.1,0.3,0.4,1.1,0.4c1.4,0,1.7-2.5,1.7-2.8c0-0.5-0.3-0.6-0.4-0.6c-0.2,0-0.4,0.2-0.4,0.4c0,0.1,0.1,0.2,0.1,0.2
		c0.2,0.1,0.3,0.3,0.3,0.6c0,0.2-0.4,1.9-1.3,1.9c-0.7,0-0.7-0.5-0.7-0.7c0-0.2,0.1-0.5,0.1-0.7l0.2-0.8l0.1-0.4
		c0-0.1,0.1-0.2,0.1-0.3c0-0.1-0.1-0.2-0.3-0.2c-0.3,0-0.3,0.2-0.4,0.5c-0.1,0.2-0.3,1.3-0.4,1.4c0,0.1,0,0.2,0,0.4
		c0,0.1,0,0.1,0,0.1c-0.2,0.5-0.4,0.6-0.8,0.6c-0.5,0-0.7-0.3-0.7-0.7c0-0.3,0.1-0.7,0.3-1.2L317.8,143.1z"/>
</g>
<g>
	<path id="g1-119_00000076603349832354663420000012059402982925776539_" class="st1" d="M289.8,143.1c0.1-0.1,0.1-0.2,0.1-0.3
		c0-0.4-0.4-0.7-0.7-0.7c-0.8,0-1.1,1-1.1,1.2c0,0,0,0.1,0.1,0.1c0.1,0,0.1,0,0.1-0.1c0.2-0.7,0.6-0.9,0.8-0.9
		c0.1,0,0.2,0.1,0.2,0.3c0,0.2-0.1,0.4-0.2,0.6c-0.3,0.7-0.3,1-0.3,1.2c0,0.7,0.6,1,1.3,1c0.1,0,0.5,0,0.9-0.5l0.1,0.1
		c0.1,0.1,0.3,0.4,1.1,0.4c1.4,0,1.7-2.5,1.7-2.8c0-0.5-0.3-0.6-0.4-0.6c-0.2,0-0.4,0.2-0.4,0.4c0,0.1,0.1,0.2,0.1,0.2
		c0.2,0.1,0.3,0.3,0.3,0.6c0,0.2-0.4,1.9-1.3,1.9c-0.7,0-0.7-0.5-0.7-0.7c0-0.2,0.1-0.5,0.1-0.7l0.2-0.8l0.1-0.4
		c0-0.1,0.1-0.2,0.1-0.3c0-0.1-0.1-0.2-0.3-0.2c-0.3,0-0.3,0.2-0.4,0.5c-0.1,0.2-0.3,1.3-0.4,1.4c0,0.1,0,0.2,0,0.4
		c0,0.1,0,0.1,0,0.1c-0.2,0.5-0.4,0.6-0.8,0.6c-0.5,0-0.7-0.3-0.7-0.7c0-0.3,0.1-0.7,0.3-1.2L289.8,143.1z"/>
</g>
<g>
	<path id="g1-119_00000140718284244454038560000009932126680178493119_" class="st1" d="M345.8,143.1c0.1-0.1,0.1-0.2,0.1-0.3
		c0-0.4-0.4-0.7-0.7-0.7c-0.8,0-1.1,1-1.1,1.2c0,0,0,0.1,0.1,0.1c0.1,0,0.1,0,0.1-0.1c0.2-0.7,0.6-0.9,0.8-0.9
		c0.1,0,0.2,0.1,0.2,0.3c0,0.2-0.1,0.4-0.2,0.6c-0.3,0.7-0.3,1-0.3,1.2c0,0.7,0.6,1,1.3,1c0.1,0,0.5,0,0.9-0.5l0.1,0.1
		c0.1,0.1,0.3,0.4,1.1,0.4c1.4,0,1.7-2.5,1.7-2.8c0-0.5-0.3-0.6-0.4-0.6c-0.2,0-0.4,0.2-0.4,0.4c0,0.1,0.1,0.2,0.1,0.2
		c0.2,0.1,0.3,0.3,0.3,0.6c0,0.2-0.4,1.9-1.3,1.9c-0.7,0-0.7-0.5-0.7-0.7c0-0.2,0.1-0.5,0.1-0.7l0.2-0.8l0.1-0.4
		c0-0.1,0.1-0.2,0.1-0.3c0-0.1-0.1-0.2-0.3-0.2c-0.3,0-0.3,0.2-0.4,0.5c-0.1,0.2-0.3,1.3-0.4,1.4c0,0.1,0,0.2,0,0.4
		c0,0.1,0,0.1,0,0.1c-0.2,0.5-0.4,0.6-0.8,0.6c-0.5,0-0.7-0.3-0.7-0.7c0-0.3,0.1-0.7,0.3-1.2L345.8,143.1z"/>
</g>
<g>
	<path id="g1-119_00000060734024982711869490000002226952291091332995_" class="st27" d="M345.6,160.5c0.1-0.1,0.1-0.2,0.1-0.3
		c0-0.4-0.4-0.7-0.7-0.7c-0.8,0-1.1,1-1.1,1.2c0,0,0,0.1,0.1,0.1s0.1,0,0.1-0.1c0.2-0.7,0.6-0.9,0.8-0.9c0.1,0,0.2,0.1,0.2,0.3
		c0,0.2-0.1,0.4-0.2,0.6c-0.3,0.7-0.3,1-0.3,1.2c0,0.7,0.6,1,1.3,1c0.1,0,0.5,0,0.9-0.5l0.1,0.1c0.1,0.1,0.3,0.4,1.1,0.4
		c1.4,0,1.7-2.5,1.7-2.8c0-0.5-0.3-0.6-0.4-0.6c-0.2,0-0.4,0.2-0.4,0.4c0,0.1,0.1,0.2,0.1,0.2c0.2,0.1,0.3,0.3,0.3,0.6
		c0,0.2-0.4,1.9-1.3,1.9c-0.7,0-0.7-0.5-0.7-0.7c0-0.2,0.1-0.5,0.1-0.7l0.2-0.8l0.1-0.4c0-0.1,0.1-0.2,0.1-0.3
		c0-0.1-0.1-0.2-0.3-0.2c-0.3,0-0.3,0.2-0.4,0.5c-0.1,0.2-0.3,1.3-0.4,1.4c0,0.1,0,0.2,0,0.4c0,0.1,0,0.1,0,0.1
		c-0.2,0.5-0.4,0.6-0.8,0.6c-0.5,0-0.7-0.3-0.7-0.7c0-0.3,0.1-0.7,0.3-1.2L345.6,160.5z"/>
</g>
<g>
	<g>
		<line class="st2" x1="290.9" y1="135.4" x2="290.9" y2="87"/>
		<g>
			<polygon class="st4" points="293.5,134.7 290.9,139.2 288.3,134.7 			"/>
		</g>
	</g>
</g>
<path class="st28" d="M103.9,69.2h-7c-1.4,0-2.5-1.1-2.5-2.5V24.6c0-1.4,1.1-2.5,2.5-2.5h7c1.4,0,2.5,1.1,2.5,2.5l0,42.2
	C106.4,68.1,105.3,69.2,103.9,69.2z"/>
<path class="st28" d="M117.7,69.2h-7c-1.4,0-2.5-1.1-2.5-2.5V24.6c0-1.4,1.1-2.5,2.5-2.5h7c1.4,0,2.5,1.1,2.5,2.5v42.2
	C120.2,68.1,119.1,69.2,117.7,69.2z"/>
<path class="st29" d="M131.5,69.2h-7c-1.4,0-2.5-1.1-2.5-2.5V24.6c0-1.4,1.1-2.5,2.5-2.5h7c1.4,0,2.5,1.1,2.5,2.5v42.2
	C134,68.1,132.9,69.2,131.5,69.2z"/>
<g>
	<g>
		<path class="st16" d="M78.6,20.9c-4.2-7.4-12.2-0.8-8.9,3.6"/>
		<g>
			<polygon class="st30" points="67.6,25.9 72.8,26.6 70.8,21.7 			"/>
		</g>
	</g>
</g>
<path class="st28" d="M90.1,69.2H77c-1.4,0-2.5-1.1-2.5-2.5V24.6c0-1.4,1.1-2.5,2.5-2.5h13.1c1.4,0,2.5,1.1,2.5,2.5v42.2
	C92.6,68.1,91.5,69.2,90.1,69.2z"/>
<g id="page1_00000042695620768137151140000011626198153603818925_" transform="matrix(1.13 0 0 1.13 -63.986043 -70.3425)">
	<g>
		<path id="g0-116_00000170960325718151998310000004495247733923082402_" class="st30" d="M128.8,77.4h0.7c0.1,0,0.2,0,0.2-0.2
			c0-0.1-0.1-0.1-0.2-0.1h-0.7l0.2-0.9c0-0.1,0-0.1,0-0.1c0-0.2-0.1-0.2-0.2-0.2c-0.1,0-0.3,0-0.3,0.3l-0.3,1h-0.7
			c-0.1,0-0.1,0-0.2,0c0,0-0.1,0.1-0.1,0.1c0,0.1,0.1,0.1,0.2,0.1h0.7l-0.4,1.6c0,0.2-0.1,0.4-0.1,0.5c0,0.4,0.3,0.6,0.7,0.6
			c0.8,0,1.2-0.9,1.2-1c0,0,0-0.1-0.1-0.1c-0.1,0-0.1,0-0.1,0.1c-0.2,0.5-0.6,0.8-0.9,0.8c-0.2,0-0.3-0.2-0.3-0.3c0-0.1,0-0.1,0-0.2
			L128.8,77.4z"/>
	</g>
</g>
<g>
	<g id="page1_00000167374827370910896410000013436935722905497776_" transform="matrix(1.13 0 0 1.13 -63.986043 -69.87468)">
		<g>
			<path id="g0-94_00000002381430957903654520000004317382961603073727_" class="st1" d="M199.5,123.4l-1.2,0.8l0.2,0.4l1-0.5l1,0.5
				l0.2-0.4L199.5,123.4z"/>
		</g>
		<g>
			<path id="g0-120_00000008870029247852117420000014392593903004654234_" class="st1" d="M199.9,126.5L199.9,126.5l0.9-0.9
				c0.1-0.1,0.1-0.1,0.2-0.1c0.1,0,0.2,0,0.3,0h0.2V125c-0.2,0-0.7,0-0.7,0c-0.1,0-0.6,0-0.8,0v0.4c0.1,0,0.1,0,0.2,0l-0.6,0.6
				l-0.7-0.6h0.1V125c-0.1,0-0.6,0-0.9,0c0,0-0.6,0-0.8,0v0.4h0.5l1.1,1.1l-1,1c-0.1,0.1-0.1,0.1-0.5,0.1h-0.2v0.4
				c0.2,0,0.7,0,0.7,0c0.2,0,0.6,0,0.8,0v-0.4l-0.2,0l0.7-0.6c0,0,0.1-0.1,0.1-0.1l0.7,0.7H200v0.4c0.2,0,0.6,0,0.9,0
				c0,0,0.6,0,0.8,0v-0.4h-0.5L199.9,126.5z"/>
		</g>
		<g>
			<path id="g1-98_00000078762331259107157490000002439182758705158278_" class="st1" d="M203.6,125.9c0-0.1,0-0.1,0-0.1
				c0-0.1-0.1-0.1-0.2-0.1l-0.7,0c-0.1,0-0.1,0-0.1,0c0,0,0,0.1,0,0.1c0,0.1,0.1,0.1,0.2,0.1c0,0,0.1,0,0.2,0c0.1,0,0.1,0,0.1,0.1
				c0,0-0.1,0.2-0.1,0.4l-0.5,1.9c0,0.1,0,0.2,0,0.3c0,0.6,0.4,1,0.9,1c0.8,0,1.6-0.8,1.6-1.5c0-0.5-0.4-1-1-1
				c-0.2,0-0.5,0.1-0.8,0.3L203.6,125.9z M203.5,129.4c-0.2,0-0.5-0.1-0.5-0.6c0-0.2,0-0.4,0.1-0.5c0-0.1,0.1-0.4,0.1-0.5
				c0-0.1,0.4-0.5,0.9-0.5c0.2,0,0.5,0.1,0.5,0.6c0,0.2-0.1,0.7-0.3,1C204,129.2,203.7,129.4,203.5,129.4z"/>
		</g>
	</g>
	<rect x="170.6" y="27.5" class="st31" width="12.2" height="12.2"/>
	<rect x="164.7" y="33.4" class="st32" width="12.2" height="12.2"/>
	<rect x="158.9" y="39.3" class="st32" width="12.2" height="12.2"/>
	<rect x="152.7" y="45.4" class="st32" width="12.2" height="12.2"/>
	<rect x="146.6" y="51.5" class="st31" width="12.2" height="12.2"/>
	<line class="st5" x1="182.9" y1="39.8" x2="158.9" y2="63.8"/>
	<line class="st5" x1="182.9" y1="27.5" x2="158.9" y2="51.5"/>
	<line class="st5" x1="170.6" y1="27.5" x2="146.6" y2="51.5"/>
	<g id="page1_00000110433704933403857070000014186099973976277136_" transform="matrix(1.13 0 0 1.13 -63.986043 -66.128902)">
		<g>
			<path id="g1-72_00000104673947803769156360000006498039936254421158_" class="st1" d="M189.2,108.7c0-0.1,0-0.1,0.3-0.1
				c0.1,0,0.1,0,0.1-0.1c0,0,0,0,0,0c-0.1,0-0.3,0-0.4,0c-0.1,0-0.3,0-0.4,0c0,0-0.1,0-0.1,0.1c0,0,0,0,0.1,0c0,0,0.1,0,0.1,0
				c0.1,0,0.1,0,0.1,0c0,0,0,0,0,0.1l-0.2,0.7h-0.9l0.2-0.7c0-0.1,0-0.1,0.3-0.1c0.1,0,0.1,0,0.1-0.1c0,0,0,0,0,0
				c-0.1,0-0.3,0-0.4,0c-0.1,0-0.3,0-0.4,0c0,0-0.1,0-0.1,0.1c0,0,0,0,0.1,0c0,0,0.1,0,0.1,0c0.1,0,0.1,0,0.1,0c0,0,0,0,0,0.1
				l-0.4,1.6c0,0.1,0,0.1-0.3,0.1c-0.1,0-0.1,0-0.1,0.1c0,0,0,0,0,0c0.1,0,0.3,0,0.4,0c0.1,0,0.1,0,0.2,0c0.1,0,0.1,0,0.2,0
				c0,0,0.1,0,0.1-0.1c0,0,0,0-0.1,0c-0.1,0-0.2,0-0.2-0.1c0,0,0,0,0-0.1l0.2-0.8h0.9c-0.1,0.5-0.2,0.8-0.2,0.8
				c0,0.1-0.1,0.1-0.3,0.1c0,0-0.1,0-0.1,0.1c0,0,0,0,0,0c0.1,0,0.3,0,0.4,0c0.1,0,0.1,0,0.2,0c0.1,0,0.1,0,0.2,0c0,0,0.1,0,0.1-0.1
				c0,0,0,0-0.1,0c-0.1,0-0.2,0-0.2-0.1c0,0,0,0,0-0.1L189.2,108.7z"/>
		</g>
		<g>
			<path id="g0-2_00000167371919906927407600000016652173925370240181_" class="st1" d="M191.5,109.7l-0.6-0.6c0,0,0,0-0.1,0
				c0,0-0.1,0-0.1,0.1c0,0,0,0,0,0.1L191.5,109.7l-0.7,0.7c0,0,0,0,0,0.1c0,0,0,0.1,0.1,0.1c0,0,0,0,0.1,0l0.6-0.6l0.6,0.6
				c0,0,0,0,0,0c0,0,0.1,0,0.1-0.1c0,0,0,0,0,0C192.3,110.4,191.8,109.9,191.5,109.7l0.6-0.5c0,0,0.1-0.1,0.1-0.1c0,0,0,0,0,0
				c0,0,0-0.1-0.1-0.1c0,0,0,0-0.1,0L191.5,109.7z"/>
		</g>
		<g>
			<path id="g1-87_00000011743559609977885250000002153766172324808360_" class="st1" d="M196.2,108.8c0.1-0.1,0.1-0.2,0.3-0.3
				c0,0,0.1,0,0.1-0.1c0,0,0,0,0,0c-0.1,0-0.2,0-0.2,0c-0.1,0-0.2,0-0.3,0c0,0-0.1,0-0.1,0.1c0,0,0,0,0,0c0.1,0,0.2,0,0.2,0.1
				C196.2,108.7,196.2,108.7,196.2,108.8l-0.9,1.4l-0.1-1.5c0-0.1,0-0.1,0.2-0.1c0.1,0,0.1,0,0.1-0.1c0,0,0,0,0,0
				c-0.1,0-0.2,0-0.4,0c-0.1,0-0.2,0-0.3,0c0,0-0.1,0-0.1,0.1c0,0,0,0,0.1,0c0.1,0,0.2,0,0.2,0.1l0,0.2l-0.8,1.3l-0.1-1.5
				c0,0,0-0.1,0.2-0.1c0,0,0.1,0,0.1-0.1c0,0,0,0,0,0c-0.1,0-0.2,0-0.4,0c-0.1,0-0.2,0-0.3,0c0,0-0.1,0-0.1,0.1c0,0,0,0,0.1,0
				c0.2,0,0.2,0,0.2,0.1l0.1,1.9c0,0.1,0,0.1,0,0.1c0,0,0,0,0.1-0.1l0.9-1.6l0.1,1.5c0,0.1,0,0.1,0,0.1c0,0,0.1,0,0.1-0.1
				L196.2,108.8z"/>
		</g>
	</g>
	<g>
		<path id="g1-67_00000096757376898806029130000002206475947908916667_" class="st1" d="M182.8,49.3c0-0.1,0-0.1,0-0.1
			s0-0.1-0.1-0.1c-0.1,0-0.1,0-0.1,0.1l-0.6,0.6c-0.4-0.5-1-0.7-1.5-0.7c-1.9,0-3.7,1.6-3.7,3.3c0,1.3,1,2.2,2.4,2.2
			c0.8,0,1.5-0.3,1.9-0.7c0.7-0.6,0.9-1.3,0.9-1.3c0-0.1-0.1-0.1-0.1-0.1c-0.1,0-0.1,0-0.1,0.1c-0.4,1.2-1.5,1.7-2.4,1.7
			c-0.6,0-1.8-0.2-1.8-1.6c0-0.3,0.1-1.3,0.9-2.2c0.4-0.4,1.2-0.9,2.1-0.9c1,0,1.5,0.7,1.5,1.5c0,0.1,0,0.3,0,0.3
			c0,0.1,0.1,0.1,0.1,0.1c0.1,0,0.1,0,0.2-0.2L182.8,49.3z"/>
	</g>
</g>
<g>
	<g>
		<line class="st5" x1="60.8" y1="152.2" x2="204.9" y2="152.2"/>
		<g>
			<polygon class="st4" points="204.1,154.8 208.6,152.2 204.1,149.5 			"/>
		</g>
	</g>
</g>
<g>
	<g id="page1_00000107555676805257898030000002744385612981771187_" transform="matrix(1.13 0 0 1.13 -63.986043 -69.87468)">
		<g>
			<path id="g0-94_00000178206166289069451850000003201154658948839319_" class="st1" d="M196.2,216.6l-1.2,0.8l0.2,0.4l1-0.5l1,0.5
				l0.2-0.4L196.2,216.6z"/>
		</g>
		<g>
			<path id="g0-120_00000088837816769478684480000009606955315589577605_" class="st1" d="M196.6,219.6L196.6,219.6l0.9-0.9
				c0.1-0.1,0.1-0.1,0.2-0.1c0.1,0,0.2,0,0.3,0h0.2v-0.4c-0.2,0-0.7,0-0.7,0c-0.1,0-0.6,0-0.8,0v0.4c0.1,0,0.1,0,0.2,0l-0.6,0.6
				l-0.7-0.6h0.1v-0.4c-0.1,0-0.6,0-0.9,0c0,0-0.6,0-0.8,0v0.4h0.5l1.1,1.1l-1,1c-0.1,0.1-0.1,0.1-0.5,0.1h-0.2v0.4
				c0.2,0,0.7,0,0.7,0c0.2,0,0.6,0,0.8,0v-0.4l-0.2,0l0.7-0.6c0,0,0.1-0.1,0.1-0.1l0.7,0.7h-0.1v0.4c0.2,0,0.6,0,0.9,0
				c0,0,0.6,0,0.8,0v-0.4h-0.5L196.6,219.6z"/>
		</g>
		<g>
			<path id="g1-97_00000150097698278449572690000013415474194886944924_" class="st1" d="M201.8,220.5c0-0.1,0.1-0.3,0.1-0.3
				c0-0.1-0.1-0.2-0.2-0.2c-0.1,0-0.2,0.1-0.3,0.2c-0.1-0.1-0.3-0.3-0.7-0.3c-0.8,0-1.6,0.8-1.6,1.5c0,0.6,0.4,1,1,1
				c0.5,0,0.8-0.3,0.9-0.4c0.1,0.3,0.4,0.4,0.7,0.4c0.2,0,0.4-0.1,0.5-0.3c0.1-0.2,0.2-0.5,0.2-0.5c0-0.1-0.1-0.1-0.1-0.1
				c-0.1,0-0.1,0-0.1,0.1c-0.1,0.4-0.2,0.6-0.4,0.6c-0.2,0-0.2-0.1-0.2-0.3c0-0.1,0.1-0.3,0.1-0.4L201.8,220.5z M201.1,221.5
				c0,0.1,0,0.1-0.1,0.2c-0.2,0.2-0.5,0.4-0.8,0.4c-0.2,0-0.5-0.1-0.5-0.6c0-0.3,0.1-0.8,0.3-1.1c0.2-0.3,0.5-0.4,0.7-0.4
				c0.2,0,0.5,0.1,0.6,0.5L201.1,221.5z"/>
		</g>
	</g>
	<g>
		<path id="g1-67_00000147205456024726887800000018137099832717861769_" class="st1" d="M179.5,155.8c0-0.1,0-0.1,0-0.1
			c0,0,0-0.1-0.1-0.1c-0.1,0-0.1,0-0.1,0.1l-0.6,0.6c-0.4-0.5-1-0.7-1.5-0.7c-1.9,0-3.7,1.6-3.7,3.3c0,1.3,1,2.2,2.4,2.2
			c0.8,0,1.5-0.3,1.9-0.7c0.7-0.6,0.9-1.3,0.9-1.3c0-0.1-0.1-0.1-0.1-0.1c-0.1,0-0.1,0-0.1,0.1c-0.4,1.2-1.5,1.7-2.4,1.7
			c-0.6,0-1.8-0.2-1.8-1.6c0-0.3,0.1-1.3,0.9-2.2c0.4-0.4,1.2-0.9,2.1-0.9c1,0,1.5,0.7,1.5,1.5c0,0.1,0,0.3,0,0.3
			c0,0.1,0.1,0.1,0.1,0.1c0.1,0,0.1,0,0.2-0.2L179.5,155.8z"/>
	</g>
	<rect x="167.3" y="134" class="st33" width="12.2" height="12.2"/>
	<rect x="161.4" y="139.9" class="st34" width="12.2" height="12.2"/>
	<rect x="155.5" y="145.8" class="st34" width="12.2" height="12.2"/>
	<rect x="149.4" y="151.9" class="st34" width="12.2" height="12.2"/>
	<rect x="143.3" y="158" class="st33" width="12.2" height="12.2"/>
	<line class="st5" x1="179.5" y1="146.3" x2="155.5" y2="170.3"/>
	<line class="st5" x1="179.5" y1="134" x2="155.5" y2="158"/>
	<line class="st5" x1="167.3" y1="134" x2="143.3" y2="158"/>
	<g id="page1_00000092456309107833193590000012660809469347892915_" transform="matrix(1.13 0 0 1.13 -63.986043 -66.128902)">
		<g>
			<path id="g1-72_00000008849398301003392520000007549894556469908923_" class="st1" d="M186.3,202.9c0-0.1,0-0.1,0.3-0.1
				c0.1,0,0.1,0,0.1-0.1c0,0,0,0,0,0c-0.1,0-0.3,0-0.4,0c-0.1,0-0.3,0-0.4,0c0,0-0.1,0-0.1,0.1c0,0,0,0,0.1,0c0,0,0.1,0,0.1,0
				c0.1,0,0.1,0,0.1,0c0,0,0,0,0,0.1l-0.2,0.7h-0.9l0.2-0.7c0-0.1,0-0.1,0.3-0.1c0.1,0,0.1,0,0.1-0.1c0,0,0,0,0,0
				c-0.1,0-0.3,0-0.4,0c-0.1,0-0.3,0-0.4,0c0,0-0.1,0-0.1,0.1c0,0,0,0,0.1,0c0,0,0.1,0,0.1,0c0.1,0,0.1,0,0.1,0c0,0,0,0,0,0.1
				l-0.4,1.6c0,0.1,0,0.1-0.3,0.1c-0.1,0-0.1,0-0.1,0.1c0,0,0,0,0,0c0.1,0,0.3,0,0.4,0c0.1,0,0.1,0,0.2,0c0.1,0,0.1,0,0.2,0
				c0,0,0.1,0,0.1-0.1c0,0,0,0-0.1,0c-0.1,0-0.2,0-0.2-0.1c0,0,0,0,0-0.1l0.2-0.8h0.9c-0.1,0.5-0.2,0.8-0.2,0.8
				c0,0.1-0.1,0.1-0.3,0.1c0,0-0.1,0-0.1,0.1c0,0,0,0,0,0c0.1,0,0.3,0,0.4,0c0.1,0,0.1,0,0.2,0c0.1,0,0.1,0,0.2,0c0,0,0.1,0,0.1-0.1
				c0,0,0,0-0.1,0c-0.1,0-0.2,0-0.2-0.1c0,0,0,0,0-0.1L186.3,202.9z"/>
		</g>
		<g>
			<path id="g0-2_00000017495640440583896030000005294415844381605763_" class="st1" d="M188.6,203.9l-0.6-0.6c0,0,0,0-0.1,0
				c0,0-0.1,0-0.1,0.1c0,0,0,0,0,0.1L188.6,203.9l-0.7,0.7c0,0,0,0,0,0.1c0,0,0,0.1,0.1,0.1c0,0,0,0,0.1,0l0.6-0.6l0.6,0.6
				c0,0,0,0,0,0c0,0,0.1,0,0.1-0.1c0,0,0,0,0,0C189.3,204.7,188.8,204.2,188.6,203.9l0.6-0.5c0,0,0.1-0.1,0.1-0.1c0,0,0,0,0,0
				c0,0,0-0.1-0.1-0.1c0,0,0,0-0.1,0L188.6,203.9z"/>
		</g>
		<g>
			<path id="g1-87_00000129896318488999926230000016531660175511367086_" class="st1" d="M193.2,203.1c0.1-0.1,0.1-0.2,0.3-0.3
				c0,0,0.1,0,0.1-0.1c0,0,0,0,0,0c-0.1,0-0.2,0-0.2,0c-0.1,0-0.2,0-0.3,0c0,0-0.1,0-0.1,0.1c0,0,0,0,0,0c0.1,0,0.2,0,0.2,0.1
				C193.2,203,193.2,203,193.2,203.1l-0.9,1.4l-0.1-1.5c0-0.1,0-0.1,0.2-0.1c0.1,0,0.1,0,0.1-0.1c0,0,0,0,0,0c-0.1,0-0.2,0-0.4,0
				c-0.1,0-0.2,0-0.3,0c0,0-0.1,0-0.1,0.1c0,0,0,0,0.1,0c0.1,0,0.2,0,0.2,0.1l0,0.2l-0.8,1.3l-0.1-1.5c0,0,0-0.1,0.2-0.1
				c0,0,0.1,0,0.1-0.1c0,0,0,0,0,0c-0.1,0-0.2,0-0.4,0c-0.1,0-0.2,0-0.3,0c0,0-0.1,0-0.1,0.1c0,0,0,0,0.1,0c0.2,0,0.2,0,0.2,0.1
				l0.1,1.9c0,0.1,0,0.1,0,0.1c0,0,0,0,0.1-0.1l0.9-1.6l0.1,1.5c0,0.1,0,0.1,0,0.1c0,0,0.1,0,0.1-0.1L193.2,203.1z"/>
		</g>
	</g>
</g>
<g>
	<g>
		<path id="g0-120_00000072962110200662004840000017254664450495233673_" class="st1" d="M51.2,151.4L51.2,151.4l1-1.1
			c0.1-0.1,0.1-0.1,0.2-0.1c0.1,0,0.2,0,0.3,0h0.2v-0.4c-0.2,0-0.7,0-0.8,0c-0.1,0-0.7,0-0.9,0v0.4c0.1,0,0.1,0,0.2,0l-0.7,0.7
			l-0.7-0.7h0.2v-0.4c-0.1,0-0.6,0-1,0c0,0-0.6,0-0.9,0v0.4h0.6l1.3,1.2l-1.2,1.1c-0.1,0.1-0.1,0.1-0.5,0.1h-0.2v0.4
			c0.2,0,0.7,0,0.8,0c0.2,0,0.7,0,0.9,0v-0.4l-0.2,0l0.8-0.7c0,0,0.1-0.1,0.1-0.1l0.8,0.8h-0.2v0.4c0.2,0,0.7,0,1,0c0,0,0.6,0,0.9,0
			v-0.4h-0.6L51.2,151.4z"/>
	</g>
	<g>
		<path id="g1-97_00000023994728438839432540000012574004533034264467_" class="st1" d="M57,152.4c0-0.1,0.1-0.4,0.1-0.4
			c0-0.1-0.1-0.2-0.2-0.2c-0.1,0-0.3,0.1-0.3,0.2c-0.1-0.2-0.4-0.4-0.7-0.4c-0.9,0-1.8,0.9-1.8,1.7c0,0.6,0.5,1.1,1.1,1.1
			c0.5,0,0.9-0.4,1-0.4c0.1,0.3,0.5,0.4,0.7,0.4c0.2,0,0.4-0.1,0.5-0.3c0.2-0.2,0.2-0.6,0.2-0.6c0-0.1-0.1-0.1-0.1-0.1
			c-0.1,0-0.1,0-0.1,0.1c-0.1,0.5-0.3,0.7-0.5,0.7c-0.2,0-0.2-0.1-0.2-0.3c0-0.1,0.1-0.3,0.1-0.5L57,152.4z M56.2,153.6
			c0,0.1,0,0.1-0.1,0.2c-0.2,0.3-0.6,0.5-0.9,0.5c-0.2,0-0.5-0.1-0.5-0.6c0-0.3,0.1-0.9,0.4-1.3c0.2-0.3,0.6-0.5,0.8-0.5
			c0.3,0,0.5,0.2,0.6,0.5L56.2,153.6z"/>
	</g>
</g>
<g>
	<g>
		<path id="g0-120_00000054965330561358242710000012488952471802701757_" class="st1" d="M51.5,44.7L51.5,44.7l1-1.1
			c0.1-0.1,0.1-0.1,0.2-0.1c0.1,0,0.2,0,0.3,0h0.2v-0.4c-0.2,0-0.7,0-0.8,0c-0.1,0-0.7,0-0.9,0v0.4c0.1,0,0.1,0,0.2,0l-0.7,0.7
			l-0.7-0.7h0.2v-0.4c-0.1,0-0.6,0-1,0c0,0-0.6,0-0.9,0v0.4h0.6l1.3,1.2l-1.2,1.1c-0.1,0.1-0.1,0.1-0.5,0.1h-0.2v0.4
			c0.2,0,0.7,0,0.8,0c0.2,0,0.7,0,0.9,0V46l-0.2,0l0.8-0.7c0,0,0.1-0.1,0.1-0.1l0.8,0.8h-0.2v0.4c0.2,0,0.7,0,1,0c0,0,0.6,0,0.9,0
			v-0.4h-0.6L51.5,44.7z"/>
	</g>
	<g>
		<path id="g1-98_00000143616230535747140770000011375215123285291408_" class="st1" d="M55.8,44.1c0-0.1,0-0.1,0-0.1
			c0-0.1-0.1-0.1-0.2-0.1l-0.8,0.1c-0.1,0-0.1,0-0.1,0c0,0,0,0.1,0,0.1c0,0.1,0.1,0.1,0.2,0.1c0,0,0.1,0,0.2,0c0.1,0,0.1,0,0.1,0.1
			c0,0-0.1,0.3-0.1,0.4l-0.5,2.1c0,0.1,0,0.2,0,0.4c0,0.6,0.5,1.1,1.1,1.1c0.9,0,1.8-0.9,1.8-1.7c0-0.6-0.4-1.1-1.1-1.1
			c-0.3,0-0.6,0.1-0.9,0.3L55.8,44.1z M55.6,48c-0.3,0-0.6-0.2-0.6-0.7c0-0.2,0-0.4,0.1-0.6c0-0.1,0.1-0.5,0.1-0.5
			c0-0.1,0.5-0.6,1-0.6c0.3,0,0.5,0.2,0.5,0.6c0,0.2-0.1,0.8-0.3,1.2C56.2,47.8,55.9,48,55.6,48z"/>
	</g>
</g>
<path class="st28" d="M105,175.7h-7c-1.4,0-2.5-1.1-2.5-2.5v-42.2c0-1.4,1.1-2.5,2.5-2.5h7c1.4,0,2.5,1.1,2.5,2.5v42.2
	C107.5,174.6,106.4,175.7,105,175.7z"/>
<g>
	<g>
		<line class="st2" x1="346.8" y1="135.4" x2="346.8" y2="62.1"/>
		<g>
			<polygon class="st4" points="349.5,134.7 346.8,139.2 344.2,134.7 			"/>
		</g>
	</g>
</g>
<path class="st0" d="M228.5,160.7h-17.6c-1.1,0-2-0.9-2-2v-13c0-1.1,0.9-2,2-2h17.6c1.1,0,2,0.9,2,2v13
	C230.5,159.8,229.6,160.7,228.5,160.7z"/>
<g class="st35">
	<circle class="st36" cx="213.1" cy="149.9" r="1.4"/>
	<circle class="st37" cx="226.3" cy="149.9" r="1.4"/>
	<circle class="st37" cx="226.3" cy="154.3" r="1.4"/>
	<circle class="st38" cx="219.8" cy="152.2" r="1.4"/>
	<circle class="st38" cx="219.8" cy="147.9" r="1.4"/>
	<circle class="st36" cx="213.1" cy="154.3" r="1.4"/>
	<circle class="st38" cx="219.8" cy="156.4" r="1.4"/>
	<line class="st39" x1="214.5" y1="149.9" x2="218.4" y2="156.4"/>
	<line class="st39" x1="214.5" y1="154.3" x2="218.4" y2="156.4"/>
	<line class="st39" x1="214.5" y1="149.9" x2="218.4" y2="152.2"/>
	<line class="st39" x1="214.5" y1="149.9" x2="218.4" y2="147.9"/>
	<line class="st39" x1="218.4" y1="152.2" x2="214.5" y2="154.3"/>
	<line class="st39" x1="221.2" y1="147.9" x2="224.9" y2="149.9"/>
	<line class="st39" x1="221.2" y1="152.2" x2="224.9" y2="154.3"/>
	<line class="st39" x1="221.3" y1="156.4" x2="224.9" y2="154.3"/>
	<line class="st39" x1="224.9" y1="154.3" x2="221.2" y2="147.9"/>
	<line class="st39" x1="214.5" y1="154.3" x2="218.4" y2="147.9"/>
	<line class="st39" x1="224.9" y1="149.9" x2="221.2" y2="152.2"/>
	<line class="st39" x1="224.9" y1="149.9" x2="221.3" y2="156.4"/>
</g>
<g id="page1_00000016794031391730422440000000387052937062182563_" transform="matrix(1.13 0 0 1.13 -63.986043 -69.80688)">
	<g>
		<path id="g0-71_00000099628069173768134310000016381862190386086059_" class="st1" d="M252.3,197.6c-0.1,0.4-0.3,0.9-0.6,1.3
			c-0.4,0.5-0.6,0.6-0.9,0.6c-0.2,0-0.8,0-1.4-0.3c-0.1,0-0.1,0-0.2,0c-0.3,0-0.7,0.3-0.7,0.5c0,0.1,0.6,0.3,0.7,0.3
			c0.4,0.1,0.7,0.1,1,0.1c0.9,0,1.7-0.4,2.4-1.5c0.6-1,1-2.7,1-2.7c0,0,0-0.1-0.1-0.1c-0.1,0-0.2,0-0.4,0.1
			c-0.2,0.2-0.3,0.2-0.3,0.4c-0.3,0.8-1,1.5-1.9,1.5c-1.1,0-1.7-0.8-1.7-1.7c0-0.3,0.1-2.6,2.7-2.6c0.1,0,0.4,0,0.7,0.1
			c0.1,0,0.4,0.1,0.4,0.4c0,0.2-0.4,0.7-0.5,0.8c0,0-0.1,0.1-0.1,0.2c0,0.1,0.1,0.1,0.1,0.1c0.3,0,0.6-0.3,0.8-0.5
			c0.3-0.4,0.5-0.7,0.5-0.9c0-0.5-0.5-0.6-1.3-0.6c-2.4,0-4.2,1.8-4.2,3.6c0,1.2,0.8,1.9,1.9,1.9
			C250.8,198.4,251.6,198.1,252.3,197.6z"/>
	</g>
</g>
<line class="st5" x1="231.3" y1="152.2" x2="254.5" y2="152.2"/>
<line class="st5" x1="254.5" y1="152.2" x2="257.5" y2="161.2"/>
<circle class="st17" cx="254.5" cy="152.2" r="1.4"/>
<g>
	<g>
		<path class="st40" d="M257.7,161.3c0-1.9,31.1-12,55.7-4.3"/>
		<g>
			<polygon class="st26" points="312.3,158.6 315.7,157.8 313.4,155.2 			"/>
		</g>
	</g>
</g>
<g>
	<circle class="st24" cx="257.7" cy="144.1" r="1.4"/>
	<circle class="st17" cx="257.7" cy="161.3" r="1.4"/>
</g>
<g>
	<g>
		<path class="st40" d="M322.3,164.4c10.1,9.4,28.9,10.5,35.9,0.7"/>
		<g>
			<polygon class="st26" points="359.4,166.4 359.5,162.9 356.4,164.6 			"/>
		</g>
	</g>
</g>
<path class="st5" d="M260.9,163.9h-7.8c-1.1,0-2-0.9-2-2v-19.1c0-1.1,0.9-2,2-2h7.8c1.1,0,2,0.9,2,2v19.1
	C262.9,163,262,163.9,260.9,163.9z"/>
<path class="st5" d="M364.5,163.9h-7.8c-1.1,0-2-0.9-2-2v-19.1c0-1.1,0.9-2,2-2h7.8c1.1,0,2,0.9,2,2v19.1
	C366.5,163,365.6,163.9,364.5,163.9z"/>
<line class="st5" x1="36.9" y1="98.9" x2="60.5" y2="98.9"/>
<path class="st28" d="M49.6,117.1h-7c-1.4,0-2.5-1.1-2.5-2.5V83.2c0-1.4,1.1-2.5,2.5-2.5h7c1.4,0,2.5,1.1,2.5,2.5l0,31.4
	C52.1,116,51,117.1,49.6,117.1z"/>
<line class="st5" x1="60.5" y1="45.6" x2="60.5" y2="152.2"/>
<path class="st29" d="M64,112.4h-7c-1.4,0-2.5-1.1-2.5-2.5V87.9c0-1.4,1.1-2.5,2.5-2.5h7c1.4,0,2.5,1.1,2.5,2.5v22.1
	C66.5,111.3,65.4,112.4,64,112.4z"/>
<g>
	<path class="st41" d="M136.4,72H66.6c-0.8,0-1.4-0.6-1.4-1.4V14c0-0.8,0.6-1.4,1.4-1.4h69.9c0.8,0,1.4,0.6,1.4,1.4v56.7
		C137.8,71.4,137.2,72,136.4,72z"/>
</g>
<g>
	<path id="g0-120_00000156560511179219577690000018182232272728709796_" class="st1" d="M33.6,99.3l0.8,0.8h-0.2v0.4
		c0.2,0,0.7,0,1,0c0,0,0.6,0,0.9,0v-0.4h-0.6l-1.3-1.3l-0.1-0.1l1-1c0.1-0.1,0.1-0.1,0.2-0.1c0.1,0,0.2,0,0.3,0H36v-0.4
		c-0.2,0-0.7,0-0.8,0c-0.1,0-0.7,0-0.9,0v0.4c0.1,0,0.1,0,0.2,0l-0.7,0.7l-0.7-0.7h0.2v-0.4c-0.1,0-0.6,0-1,0c0,0-0.6,0-0.9,0v0.4
		H32l1.3,1.2l-1.2,1.1c-0.1,0.1-0.1,0.1-0.5,0.1h-0.2v0.4c0.2,0,0.7,0,0.8,0c0.2,0,0.7,0,0.9,0v-0.4l-0.2,0L33.6,99.3
		C33.6,99.3,33.6,99.3,33.6,99.3"/>
</g>
<path class="st0" d="M337.7,82.2H226.3c-0.8,0-1.4-0.6-1.4-1.4l0-62.4c0-0.8,0.6-1.4,1.4-1.4h111.4c0.8,0,1.4,0.6,1.4,1.4l0,62.4
	C339.1,81.5,338.5,82.2,337.7,82.2z"/>
<g>
	<path id="g1-69_00000003085721852706076700000009446446975718570428_" class="st1" d="M330.1,22.6c-1.6,0.8-1.7,1.8-1.7,2
		c0,0.7,0.8,1,1.6,1c1.5,0,2.7-1.2,2.7-1.4c0-0.1-0.1-0.1-0.1-0.1c0,0-0.3,0-0.6,0.3c-0.1,0.2-0.6,0.6-1.4,0.6
		c-0.5,0-1.4-0.2-1.4-0.8c0-0.3,0.2-0.7,0.5-1c0.5-0.5,1.3-0.5,1.4-0.5c0.2,0,0.3,0,0.5-0.1c0.1-0.1,0.3-0.2,0.3-0.3
		c0-0.1-0.1-0.1-0.2-0.1c-0.5,0-1.5-0.1-1.5-0.9c0-0.1,0-0.5,0.4-0.7c0.2-0.1,0.6-0.2,0.9-0.2c0.2,0,0.4,0,0.6,0.1
		c0.1,0,0.3,0.1,0.3,0.3c0,0.1,0,0.2-0.1,0.2c0,0,0,0.1,0,0.1c0,0.1,0,0.1,0.1,0.1c0.2,0,0.8-0.3,0.8-0.8c0-0.4-0.5-0.6-1-0.6
		c-1.4,0-2.7,0.9-2.7,1.8C329.4,22.3,330,22.5,330.1,22.6z"/>
	<g>
		<path id="g5-50_00000049905160312131830590000016785350048286666125_" class="st1" d="M337,25.6h-0.3c0,0.1-0.1,0.5-0.2,0.6
			c-0.1,0-0.6,0-0.7,0h-1.3c0.4-0.3,0.9-0.7,1.3-0.9c0.6-0.4,1.1-0.8,1.1-1.5c0-0.8-0.8-1.3-1.7-1.3c-0.9,0-1.5,0.5-1.5,1.1
			c0,0.3,0.3,0.4,0.4,0.4c0.2,0,0.4-0.1,0.4-0.4c0-0.2-0.2-0.4-0.4-0.4c0.2-0.3,0.6-0.5,1-0.5c0.6,0,1.2,0.4,1.2,1
			c0,0.5-0.4,1-0.9,1.4l-1.6,1.3c-0.1,0.1-0.1,0.1-0.1,0.1v0.2h3L337,25.6z"/>
	</g>
</g>
<path class="st0" d="M309.8,95.1H198.4c-0.8,0-1.4-0.6-1.4-1.4l0-62.4c0-0.8,0.6-1.4,1.4-1.4l111.4,0c0.8,0,1.4,0.6,1.4,1.4v62.4
	C311.2,94.5,310.6,95.1,309.8,95.1z"/>
<line class="st5" x1="199" y1="81.3" x2="260.3" y2="81.3"/>
<line class="st5" x1="199" y1="45.5" x2="260.3" y2="45.5"/>
<path class="st28" d="M294.5,87h-7c-1.4,0-2.5-1.1-2.5-2.5V42.3c0-1.4,1.1-2.5,2.5-2.5h7c1.4,0,2.5,1.1,2.5,2.5v42.2
	C297,85.9,295.9,87,294.5,87z"/>
<path class="st28" d="M201,49v-7c0-1.4,1.1-2.5,2.5-2.5l42.2,0c1.4,0,2.5,1.1,2.5,2.5v7c0,1.4-1.1,2.5-2.5,2.5l-42.2,0
	C202.1,51.5,201,50.3,201,49z"/>
<line class="st13" x1="261.4" y1="55.9" x2="261.4" y2="69.3"/>
<g>
	<circle class="st6" cx="261.4" cy="62.6" r="4.7"/>
	<path class="st7" d="M259,65l4.8-4.8L259,65z"/>
	<path class="st7" d="M263.8,65l-4.8-4.8L263.8,65z"/>
</g>
<rect x="260" y="71.9" class="st42" width="12.2" height="12.2"/>
<rect x="257.7" y="74.3" class="st43" width="12.2" height="12.2"/>
<rect x="255.3" y="76.6" class="st42" width="12.2" height="12.2"/>
<line class="st44" x1="272.3" y1="84.1" x2="267.6" y2="88.8"/>
<line class="st44" x1="272.3" y1="71.9" x2="267.4" y2="76.8"/>
<line class="st44" x1="260" y1="71.9" x2="255.3" y2="76.6"/>
<g id="page1_00000101101250997907971410000008213017203674056857_" transform="matrix(1.13 0 0 1.13 -63.986043 -66.128902)">
	<g>
		<path id="g1-72_00000092453978618487447090000012403290440990967702_" class="st1" d="M285.4,130.9c0-0.1,0-0.1,0.3-0.1
			c0.1,0,0.1,0,0.1-0.1c0,0,0,0,0,0c-0.1,0-0.3,0-0.4,0c-0.1,0-0.3,0-0.4,0c0,0-0.1,0-0.1,0.1c0,0,0,0,0.1,0c0,0,0.1,0,0.1,0
			c0.1,0,0.1,0,0.1,0c0,0,0,0,0,0.1l-0.2,0.7H284l0.2-0.7c0-0.1,0-0.1,0.3-0.1c0.1,0,0.1,0,0.1-0.1c0,0,0,0,0,0c-0.1,0-0.3,0-0.4,0
			c-0.1,0-0.3,0-0.4,0c0,0-0.1,0-0.1,0.1c0,0,0,0,0.1,0c0,0,0.1,0,0.1,0c0.1,0,0.1,0,0.1,0c0,0,0,0,0,0.1l-0.4,1.6
			c0,0.1,0,0.1-0.3,0.1c-0.1,0-0.1,0-0.1,0.1c0,0,0,0,0,0c0.1,0,0.3,0,0.4,0c0.1,0,0.1,0,0.2,0c0.1,0,0.1,0,0.2,0c0,0,0.1,0,0.1-0.1
			c0,0,0,0-0.1,0c-0.1,0-0.2,0-0.2-0.1c0,0,0,0,0-0.1l0.2-0.8h0.9c-0.1,0.5-0.2,0.8-0.2,0.8c0,0.1-0.1,0.1-0.3,0.1
			c0,0-0.1,0-0.1,0.1c0,0,0,0,0,0c0.1,0,0.3,0,0.4,0c0.1,0,0.1,0,0.2,0c0.1,0,0.1,0,0.2,0c0,0,0.1,0,0.1-0.1c0,0,0,0-0.1,0
			c-0.1,0-0.2,0-0.2-0.1c0,0,0,0,0-0.1L285.4,130.9z"/>
	</g>
	<g>
		<path id="g0-2_00000088123876218712893830000006625462403001894310_" class="st1" d="M287.7,131.9l-0.6-0.6c0,0,0,0-0.1,0
			c0,0-0.1,0-0.1,0.1c0,0,0,0,0,0.1L287.7,131.9l-0.7,0.7c0,0,0,0,0,0.1c0,0,0,0.1,0.1,0.1c0,0,0,0,0.1,0l0.6-0.6l0.6,0.6
			c0,0,0,0,0,0c0,0,0.1,0,0.1-0.1c0,0,0,0,0,0C288.5,132.6,288,132.1,287.7,131.9l0.6-0.5c0,0,0.1-0.1,0.1-0.1c0,0,0,0,0,0
			c0,0,0-0.1-0.1-0.1c0,0,0,0-0.1,0L287.7,131.9z"/>
	</g>
	<g>
		<path id="g1-87_00000179609751538933870940000012321673470229296315_" class="st1" d="M292.4,131c0.1-0.1,0.1-0.2,0.3-0.3
			c0,0,0.1,0,0.1-0.1c0,0,0,0,0,0c-0.1,0-0.2,0-0.2,0c-0.1,0-0.2,0-0.3,0c0,0-0.1,0-0.1,0.1c0,0,0,0,0,0c0.1,0,0.2,0,0.2,0.1
			C292.4,130.9,292.4,130.9,292.4,131l-0.9,1.4l-0.1-1.5c0-0.1,0-0.1,0.2-0.1c0.1,0,0.1,0,0.1-0.1c0,0,0,0,0,0c-0.1,0-0.2,0-0.4,0
			c-0.1,0-0.2,0-0.3,0c0,0-0.1,0-0.1,0.1c0,0,0,0,0.1,0c0.1,0,0.2,0,0.2,0.1l0,0.2l-0.8,1.3l-0.1-1.5c0,0,0-0.1,0.2-0.1
			c0,0,0.1,0,0.1-0.1c0,0,0,0,0,0c-0.1,0-0.2,0-0.4,0c-0.1,0-0.2,0-0.3,0c0,0-0.1,0-0.1,0.1c0,0,0,0,0.1,0c0.2,0,0.2,0,0.2,0.1
			l0.1,1.9c0,0.1,0,0.1,0,0.1c0,0,0,0,0.1-0.1l0.9-1.6l0.1,1.5c0,0.1,0,0.1,0,0.1c0,0,0.1,0,0.1-0.1L292.4,131z"/>
	</g>
</g>
<g id="page1_00000011012193742486923210000013462724871823891859_" transform="matrix(1.13 0 0 1.13 -63.986043 -69.94926)">
	<g>
		<path id="g0-82_00000083071446350088239700000006862862727631984273_" class="st30" d="M299.5,136c0.1-0.2,0.1-0.2,0.3-0.2h0.7
			c0.7,0,1.1,0.2,1.1,0.7c0,0.2-0.1,0.7-0.6,1c-0.3,0.1-0.6,0.2-1.1,0.2h-0.9L299.5,136z M300.8,137.8c0.6-0.1,1.5-0.6,1.5-1.2
			c0-0.6-0.7-1-1.7-1h-2.1c-0.1,0-0.2,0-0.2,0.2c0,0.1,0.1,0.1,0.2,0.1c0.1,0,0.3,0,0.4,0c0,0.1,0,0.1,0,0.2l-0.9,3.5
			c-0.1,0.2-0.1,0.3-0.6,0.3c-0.1,0-0.2,0-0.2,0c0,0-0.1,0.1-0.1,0.2c0,0,0,0.1,0.1,0.1c0.2,0,0.7,0,0.9,0c0.4,0,0,0,0.5,0
			c0.1,0,0.3,0,0.4,0c0,0,0.1,0,0.1,0c0,0,0-0.1,0-0.1c0-0.1-0.1-0.1-0.2-0.1c-0.1,0-0.2,0-0.3,0c-0.1,0-0.2,0-0.2-0.1
			c0,0,0-0.1,0-0.1l0.4-1.7h1c0.6,0,0.9,0.3,0.9,0.6c0,0.1-0.1,0.3-0.1,0.5c-0.1,0.3-0.1,0.4-0.1,0.5c0,0.5,0.5,0.7,1,0.7
			c0.6,0,0.9-0.6,0.9-0.8c0,0,0-0.1-0.1-0.1c-0.1,0-0.1,0.1-0.1,0.1c-0.2,0.5-0.5,0.6-0.6,0.6c-0.2,0-0.3-0.1-0.3-0.5
			c0-0.2,0-0.5,0.1-0.7c0-0.1,0-0.2,0-0.3C301.5,138.1,301.1,137.9,300.8,137.8z"/>
	</g>
	<g>
		<path id="g1-49_00000142153764275269046110000008755252311551675816_" class="st30" d="M304.9,137.8c0-0.2,0-0.2-0.2-0.2
			c-0.4,0.4-1,0.4-1.1,0.4h-0.1v0.2h0.1c0.1,0,0.5,0,0.8-0.2v2.8c0,0.2,0,0.2-0.6,0.2h-0.3v0.2c0.3,0,0.8,0,1.1,0s0.8,0,1.1,0v-0.2
			h-0.3c-0.6,0-0.6-0.1-0.6-0.2V137.8z"/>
	</g>
</g>
<line class="st5" x1="260" y1="36.1" x2="255.3" y2="40.8"/>
<rect x="260" y="36.1" class="st45" width="12.2" height="12.2"/>
<rect x="257.6" y="38.4" class="st46" width="12.2" height="12.2"/>
<rect x="255.3" y="40.8" class="st45" width="12.2" height="12.2"/>
<g id="page1_00000005979480523726115250000015298021524807090357_" transform="matrix(1.13 0 0 1.13 -63.986043 -66.128902)">
	<g>
		<path id="g1-72_00000070825860001621400640000002959177401963988124_" class="st1" d="M285.4,99.2c0-0.1,0-0.1,0.3-0.1
			c0.1,0,0.1,0,0.1-0.1c0,0,0,0,0,0c-0.1,0-0.3,0-0.4,0c-0.1,0-0.3,0-0.4,0c0,0-0.1,0-0.1,0.1c0,0,0,0,0.1,0c0,0,0.1,0,0.1,0
			c0.1,0,0.1,0,0.1,0c0,0,0,0,0,0.1l-0.2,0.7H284l0.2-0.7c0-0.1,0-0.1,0.3-0.1c0.1,0,0.1,0,0.1-0.1c0,0,0,0,0,0c-0.1,0-0.3,0-0.4,0
			c-0.1,0-0.3,0-0.4,0c0,0-0.1,0-0.1,0.1c0,0,0,0,0.1,0c0,0,0.1,0,0.1,0c0.1,0,0.1,0,0.1,0c0,0,0,0,0,0.1l-0.4,1.6
			c0,0.1,0,0.1-0.3,0.1c-0.1,0-0.1,0-0.1,0.1c0,0,0,0,0,0c0.1,0,0.3,0,0.4,0c0.1,0,0.1,0,0.2,0c0.1,0,0.1,0,0.2,0c0,0,0.1,0,0.1-0.1
			c0,0,0,0-0.1,0c-0.1,0-0.2,0-0.2-0.1c0,0,0,0,0-0.1l0.2-0.8h0.9c-0.1,0.5-0.2,0.8-0.2,0.8c0,0.1-0.1,0.1-0.3,0.1
			c0,0-0.1,0-0.1,0.1c0,0,0,0,0,0c0.1,0,0.3,0,0.4,0c0.1,0,0.1,0,0.2,0c0.1,0,0.1,0,0.2,0c0,0,0.1,0,0.1-0.1c0,0,0,0-0.1,0
			c-0.1,0-0.2,0-0.2-0.1c0,0,0,0,0-0.1L285.4,99.2z"/>
	</g>
	<g>
		<path id="g0-2_00000002342727052722985970000016469187551159106728_" class="st1" d="M287.7,100.2l-0.6-0.6c0,0,0,0-0.1,0
			c0,0-0.1,0-0.1,0.1c0,0,0,0,0,0.1L287.7,100.2l-0.7,0.7c0,0,0,0,0,0.1c0,0,0,0.1,0.1,0.1c0,0,0,0,0.1,0l0.6-0.6l0.6,0.6
			c0,0,0,0,0,0c0,0,0.1,0,0.1-0.1c0,0,0,0,0,0C288.4,100.9,287.9,100.4,287.7,100.2l0.6-0.5c0,0,0.1-0.1,0.1-0.1c0,0,0,0,0,0
			c0,0,0-0.1-0.1-0.1c0,0,0,0-0.1,0L287.7,100.2z"/>
	</g>
	<g>
		<path id="g1-87_00000087404187609228618200000000039703841651894447_" class="st1" d="M292.3,99.3c0.1-0.1,0.1-0.2,0.3-0.3
			c0,0,0.1,0,0.1-0.1c0,0,0,0,0,0c-0.1,0-0.2,0-0.2,0c-0.1,0-0.2,0-0.3,0c0,0-0.1,0-0.1,0.1c0,0,0,0,0,0c0.1,0,0.2,0,0.2,0.1
			C292.3,99.2,292.3,99.2,292.3,99.3l-0.9,1.4l-0.1-1.5c0-0.1,0-0.1,0.2-0.1c0.1,0,0.1,0,0.1-0.1c0,0,0,0,0,0c-0.1,0-0.2,0-0.4,0
			c-0.1,0-0.2,0-0.3,0c0,0-0.1,0-0.1,0.1c0,0,0,0,0.1,0c0.1,0,0.2,0,0.2,0.1l0,0.2l-0.8,1.3l-0.1-1.5c0,0,0-0.1,0.2-0.1
			c0,0,0.1,0,0.1-0.1c0,0,0,0,0,0c-0.1,0-0.2,0-0.4,0c-0.1,0-0.2,0-0.3,0c0,0-0.1,0-0.1,0.1c0,0,0,0,0.1,0c0.2,0,0.2,0,0.2,0.1
			l0.1,1.9c0,0.1,0,0.1,0,0.1c0,0,0,0,0.1-0.1l0.9-1.6l0.1,1.5c0,0.1,0,0.1,0,0.1c0,0,0.1,0,0.1-0.1L292.3,99.3z"/>
	</g>
</g>
<line class="st5" x1="272.2" y1="48.3" x2="267.5" y2="53"/>
<g id="page1_00000083781635794552152920000012091616608745330055_" transform="matrix(1.13 0 0 1.13 -63.986043 -69.94926)">
	<g>
		<path id="g0-82_00000025423750574487739320000002756373071105113493_" class="st30" d="M299.5,104.3c0.1-0.2,0.1-0.2,0.3-0.2h0.7
			c0.7,0,1.1,0.2,1.1,0.7c0,0.2-0.1,0.7-0.6,1c-0.3,0.1-0.6,0.2-1.1,0.2h-0.9L299.5,104.3z M300.8,106.1c0.6-0.1,1.5-0.6,1.5-1.2
			c0-0.6-0.7-1-1.7-1h-2.1c-0.1,0-0.2,0-0.2,0.2c0,0.1,0.1,0.1,0.2,0.1c0.1,0,0.3,0,0.4,0c0,0.1,0,0.1,0,0.2l-0.9,3.5
			c-0.1,0.2-0.1,0.3-0.6,0.3c-0.1,0-0.2,0-0.2,0c0,0-0.1,0.1-0.1,0.2c0,0,0,0.1,0.1,0.1c0.2,0,0.7,0,0.9,0c0.4,0,0,0,0.5,0
			c0.1,0,0.3,0,0.4,0c0,0,0.1,0,0.1,0c0,0,0-0.1,0-0.1c0-0.1-0.1-0.1-0.2-0.1c-0.1,0-0.2,0-0.3,0c-0.1,0-0.2,0-0.2-0.1
			c0,0,0-0.1,0-0.1l0.4-1.7h1c0.6,0,0.9,0.3,0.9,0.6c0,0.1-0.1,0.3-0.1,0.5c-0.1,0.3-0.1,0.4-0.1,0.5c0,0.5,0.5,0.7,1,0.7
			c0.6,0,0.9-0.6,0.9-0.8c0,0,0-0.1-0.1-0.1c-0.1,0-0.1,0.1-0.1,0.1c-0.2,0.5-0.5,0.6-0.6,0.6c-0.2,0-0.3-0.1-0.3-0.5
			c0-0.2,0-0.5,0.1-0.7c0-0.1,0-0.2,0-0.3C301.5,106.4,301.1,106.2,300.8,106.1z"/>
	</g>
	<g>
		<path id="g1-49_00000039101995213368901380000018045452738448643466_" class="st30" d="M304.9,106.1c0-0.2,0-0.2-0.2-0.2
			c-0.4,0.4-1,0.4-1.1,0.4h-0.1v0.2h0.1c0.1,0,0.5,0,0.8-0.2v2.8c0,0.2,0,0.2-0.6,0.2h-0.3v0.2c0.3,0,0.8,0,1.1,0s0.8,0,1.1,0v-0.2
			h-0.3c-0.6,0-0.6-0.1-0.6-0.2V106.1z"/>
	</g>
</g>
<line class="st5" x1="272.2" y1="36.2" x2="267.6" y2="40.9"/>
<path class="st28" d="M201,84.8v-7c0-1.4,1.1-2.5,2.5-2.5l42.2,0c1.4,0,2.5,1.1,2.5,2.5v7c0,1.4-1.1,2.5-2.5,2.5l-42.2,0
	C202.1,87.3,201,86.2,201,84.8z"/>
<line class="st5" x1="266.1" y1="62.6" x2="285.5" y2="62.6"/>
<g>
	<g>
		<path id="g1-69_00000101795524109633565600000017578552434728562054_" class="st1" d="M302.4,35.5c-1.6,0.8-1.7,1.8-1.7,2
			c0,0.7,0.8,1,1.6,1c1.5,0,2.7-1.2,2.7-1.4c0-0.1-0.1-0.1-0.1-0.1c0,0-0.3,0-0.6,0.3c-0.1,0.2-0.6,0.6-1.4,0.6
			c-0.5,0-1.4-0.2-1.4-0.8c0-0.3,0.2-0.7,0.5-1c0.6-0.5,1.3-0.5,1.4-0.5c0.2,0,0.3,0,0.5-0.1c0.1-0.1,0.3-0.2,0.3-0.3
			c0-0.1-0.1-0.1-0.2-0.1c-0.5,0-1.5-0.1-1.5-0.9c0-0.1,0-0.6,0.4-0.8c0.2-0.1,0.6-0.2,0.9-0.2c0.2,0,0.4,0,0.6,0.1
			c0.1,0,0.3,0.1,0.3,0.3c0,0.1,0,0.2-0.1,0.2c0,0,0,0.1,0,0.1c0,0.1,0,0.1,0.1,0.1c0.2,0,0.8-0.3,0.8-0.8c0-0.4-0.5-0.6-1-0.6
			c-1.4,0-2.7,0.9-2.7,1.8C301.6,35.2,302.3,35.5,302.4,35.5z"/>
	</g>
	<g>
		<path id="g5-49_00000144317281033042338140000003164156974043142792_" class="st1" d="M308.1,35.7c0-0.2,0-0.2-0.2-0.2
			c-0.5,0.4-1.2,0.4-1.3,0.4h-0.1v0.3h0.1c0.2,0,0.6,0,1-0.2v3.3c0,0.2,0,0.3-0.7,0.3h-0.3v0.3c0.4,0,0.9,0,1.3,0s1,0,1.3,0v-0.3
			h-0.3c-0.7,0-0.7-0.1-0.7-0.3V35.7z"/>
	</g>
</g>
<g>
	<g>
		<line class="st2" x1="318.9" y1="135.4" x2="318.9" y2="74.1"/>
		<g>
			<polygon class="st4" points="321.5,134.6 318.9,139.2 316.3,134.6 			"/>
		</g>
	</g>
</g>
<rect x="96" y="27.8" class="st47" width="6.7" height="35.6"/>
<text transform="matrix(0 -1 1 0 102.661 62.7124)" class="st1 st48 st49">Depthwise</text>
<text transform="matrix(1 0 0 1 208.8333 169.1296)" class="st1 st48 st49">Router</text>
<rect x="208.6" y="41.9" class="st47" width="32" height="7.2"/>
<text transform="matrix(1 0 0 1 208.5697 48.5112)" class="st1 st48 st49">Compress</text>
<rect x="208.6" y="77.7" class="st47" width="32" height="7.2"/>
<text transform="matrix(1 0 0 1 208.5695 84.3516)" class="st1 st48 st49">Compress</text>
<rect x="287.7" y="52.1" class="st47" width="6.7" height="22.7"/>
<text transform="matrix(0 -1 1 0 294.3076 74.7334)" class="st1 st48 st49">Extend</text>
<path class="st28" d="M322.4,75.1h-7c-1.4,0-2.5-1.1-2.5-2.5V30.4c0-1.4,1.1-2.5,2.5-2.5h7c1.4,0,2.5,1.1,2.5,2.5v42.2
	C324.9,73.9,323.8,75.1,322.4,75.1z"/>
<rect x="315.5" y="40.1" class="st47" width="6.7" height="22.7"/>
<text transform="matrix(0 -1 1 0 322.1874 62.7949)" class="st1 st48 st49">Extend</text>
<path class="st28" d="M350.2,62h-7c-1.4,0-2.5-1.1-2.5-2.5V17.3c0-1.4,1.1-2.5,2.5-2.5h7c1.4,0,2.5,1.1,2.5,2.5v42.2
	C352.7,60.9,351.6,62,350.2,62z"/>
<rect x="343.3" y="27.1" class="st47" width="6.7" height="22.7"/>
<text transform="matrix(0 -1 1 0 349.986 49.7354)" class="st1 st48 st49">Extend</text>
<rect x="97.1" y="140.6" class="st47" width="6.7" height="23.1"/>
<text transform="matrix(0 -1 1 0 103.7548 163.708)" class="st1 st48 st49">DConv</text>
<rect x="41.8" y="87.3" class="st47" width="6.7" height="23.1"/>
<text transform="matrix(0 -1 1 0 48.4017 110.2285)" class="st1 st48 st49">Project</text>
<rect x="56.2" y="89.1" class="st47" width="6.7" height="19.6"/>
<text transform="matrix(0 -1 1 0 62.8061 108.6738)" class="st1 st48 st49">chunk</text>
<rect x="109.7" y="27.8" class="st47" width="6.7" height="35.6"/>
<text transform="matrix(0 -1 1 0 116.3129 61.3843)" class="st1 st48 st49">Ponitwise</text>
<rect x="75.8" y="27.9" class="st47" width="14.1" height="35.6"/>
<text transform="matrix(0 -1 1 0 82.4638 57.2026)"><tspan x="0" y="0" class="st1 st48 st49">DConv</tspan><tspan x="0.1" y="7" class="st1 st48 st49">stride s</tspan></text>
<rect x="123.5" y="27.6" class="st47" width="6.7" height="35.6"/>
<text transform="matrix(0 -1 1 0 130.1905 56.0845)" class="st1 st48 st49">Interpl</text>
<rect x="241" y="129.6" class="st47" width="32" height="7.2"/>
<text transform="matrix(1 0 0 1 243.2441 136.269)" class="st1 st48 st49">Training</text>
<rect x="241" y="167.5" class="st47" width="32" height="7.2"/>
<text transform="matrix(1 0 0 1 241.9199 174.1147)" class="st1 st48 st49">Inference</text>
<rect x="3.2" y="4.2" class="st47" width="20" height="7.1"/>
<text transform="matrix(1 0 0 1 3.2434 10.8905)" class="st1 st48 st49">MoRe</text>
</svg>
